  0
SECTION
  2
HEADER
  9
$ACADVER
  1
AC1009
  9
$INSBASE
 10
0.0
 20
0.0
 30
0.0
  9
$EXTMIN
 10
-0.0000051842471294
 20
-0.0000019436265575
 30
0.0
  9
$EXTMAX
 10
460.99999481575281
 20
349.00000112169141
 30
0.0
  9
$LIMMIN
 10
0.0
 20
0.0
  9
$LIMMAX
 10
420.0
 20
297.0
  9
$ORTHOMODE
 70
     0
  9
$REGENMODE
 70
     1
  9
$FILLMODE
 70
     1
  9
$QTEXTMODE
 70
     0
  9
$MIRRTEXT
 70
     0
  9
$DRAGMODE
 70
     2
  9
$LTSCALE
 40
1.0
  9
$OSMODE
 70
   423
  9
$ATTMODE
 70
     1
  9
$TEXTSIZE
 40
2.5
  9
$TRACEWID
 40
1.0
  9
$TEXTSTYLE
  7
STANDARD
  9
$CLAYER
  8
0
  9
$CELTYPE
  6
BYLAYER
  9
$CECOLOR
 62
   256
  9
$DIMSCALE
 40
1.0
  9
$DIMASZ
 40
2.5
  9
$DIMEXO
 40
0.625
  9
$DIMDLI
 40
3.75
  9
$DIMRND
 40
0.0
  9
$DIMDLE
 40
0.0
  9
$DIMEXE
 40
1.25
  9
$DIMTP
 40
0.0
  9
$DIMTM
 40
0.0
  9
$DIMTXT
 40
2.5
  9
$DIMCEN
 40
2.5
  9
$DIMTSZ
 40
0.0
  9
$DIMTOL
 70
     0
  9
$DIMLIM
 70
     0
  9
$DIMTIH
 70
     0
  9
$DIMTOH
 70
     0
  9
$DIMSE1
 70
     0
  9
$DIMSE2
 70
     0
  9
$DIMTAD
 70
     1
  9
$DIMZIN
 70
     8
  9
$DIMBLK
  1

  9
$DIMASO
 70
     1
  9
$DIMSHO
 70
     1
  9
$DIMPOST
  1

  9
$DIMAPOST
  1

  9
$DIMALT
 70
     0
  9
$DIMALTD
 70
     3
  9
$DIMALTF
 40
0.03937007874016
  9
$DIMLFAC
 40
1.0
  9
$DIMTOFL
 70
     1
  9
$DIMTVP
 40
0.0
  9
$DIMTIX
 70
     0
  9
$DIMSOXD
 70
     0
  9
$DIMSAH
 70
     0
  9
$DIMBLK1
  1

  9
$DIMBLK2
  1

  9
$DIMSTYLE
  2
ISO-25
  9
$DIMCLRD
 70
     0
  9
$DIMCLRE
 70
     0
  9
$DIMCLRT
 70
     0
  9
$DIMTFAC
 40
1.0
  9
$DIMGAP
 40
0.625
  9
$LUNITS
 70
     2
  9
$LUPREC
 70
     4
  9
$SKETCHINC
 40
1.0
  9
$FILLETRAD
 40
0.0
  9
$AUNITS
 70
     0
  9
$AUPREC
 70
     0
  9
$MENU
  1
.
  9
$ELEVATION
 40
0.0
  9
$PELEVATION
 40
0.0
  9
$THICKNESS
 40
0.0
  9
$LIMCHECK
 70
     0
  9
$BLIPMODE
 70
     0
  9
$CHAMFERA
 40
0.0
  9
$CHAMFERB
 40
0.0
  9
$SKPOLY
 70
     0
  9
$TDCREATE
 40
2458108.486374421
  9
$TDUPDATE
 40
2458243.503620266
  9
$TDINDWG
 40
0.0011944676
  9
$TDUSRTIMER
 40
0.0011944213
  9
$USRTIMER
 70
     1
  9
$ANGBASE
 50
0.0
  9
$ANGDIR
 70
     0
  9
$PDMODE
 70
     0
  9
$PDSIZE
 40
0.0
  9
$PLINEWID
 40
0.0
  9
$COORDS
 70
     1
  9
$SPLFRAME
 70
     0
  9
$SPLINETYPE
 70
     6
  9
$SPLINESEGS
 70
     8
  9
$ATTDIA
 70
     1
  9
$ATTREQ
 70
     1
  9
$HANDLING
 70
     1
  9
$HANDSEED
  5
5E1
  9
$SURFTAB1
 70
     6
  9
$SURFTAB2
 70
     6
  9
$SURFTYPE
 70
     6
  9
$SURFU
 70
     6
  9
$SURFV
 70
     6
  9
$UCSNAME
  2

  9
$UCSORG
 10
0.0
 20
0.0
 30
0.0
  9
$UCSXDIR
 10
1.0
 20
0.0
 30
0.0
  9
$UCSYDIR
 10
0.0
 20
1.0
 30
0.0
  9
$PUCSNAME
  2

  9
$PUCSORG
 10
0.0
 20
0.0
 30
0.0
  9
$PUCSXDIR
 10
1.0
 20
0.0
 30
0.0
  9
$PUCSYDIR
 10
0.0
 20
1.0
 30
0.0
  9
$USERI1
 70
     0
  9
$USERI2
 70
     0
  9
$USERI3
 70
     0
  9
$USERI4
 70
     0
  9
$USERI5
 70
     0
  9
$USERR1
 40
0.0
  9
$USERR2
 40
0.0
  9
$USERR3
 40
0.0
  9
$USERR4
 40
0.0
  9
$USERR5
 40
0.0
  9
$WORLDVIEW
 70
     1
  9
$SHADEDGE
 70
     3
  9
$SHADEDIF
 70
    70
  9
$TILEMODE
 70
     1
  9
$MAXACTVP
 70
    64
  9
$PLIMCHECK
 70
     0
  9
$PEXTMIN
 10
0.0
 20
0.0
 30
0.0
  9
$PEXTMAX
 10
0.0
 20
0.0
 30
0.0
  9
$PLIMMIN
 10
0.0
 20
0.0
  9
$PLIMMAX
 10
12.0
 20
9.0
  9
$UNITMODE
 70
     0
  9
$VISRETAIN
 70
     1
  9
$PLINEGEN
 70
     0
  9
$PSLTSCALE
 70
     1
  0
ENDSEC
  0
SECTION
  2
TABLES
  0
TABLE
  2
VPORT
 70
     1
  0
VPORT
  2
*ACTIVE
 70
     0
 10
0.0
 20
0.0
 11
1.0
 21
1.0
 12
289.59942316734907
 22
182.3507005764925
 13
0.0
 23
0.0
 14
10.0
 24
10.0
 15
10.0
 25
10.0
 16
0.0
 26
0.0
 36
1.0
 17
0.0
 27
0.0
 37
0.0
 40
1007.992819226164
 41
1.9208972845336481
 42
50.0
 43
0.0
 44
0.0
 50
0.0
 51
0.0
 71
     0
 72
  1000
 73
     1
 74
     3
 75
     0
 76
     1
 77
     0
 78
     0
  0
ENDTAB
  0
TABLE
  2
LTYPE
 70
     1
  0
LTYPE
  2
CONTINUOUS
 70
     0
  3
Solid line
 72
    65
 73
     0
 40
0.0
  0
ENDTAB
  0
TABLE
  2
LAYER
 70
     1
  0
LAYER
  2
0
 70
     0
 62
     7
  6
CONTINUOUS
  0
ENDTAB
  0
TABLE
  2
STYLE
 70
     3
  0
STYLE
  2
STANDARD
 70
     0
 40
0.0
 41
1.0
 50
0.0
 71
     0
 42
2.5
  3
txt
  4

  0
STYLE
  2
ANNOTATIVE
 70
     0
 40
0.0
 41
1.0
 50
0.0
 71
     0
 42
0.2
  3
txt
  4

  0
STYLE
  2
¿ÕÕŒ“¿“»¬Õ€…
 70
     0
 40
0.0
 41
1.0
 50
0.0
 71
     0
 42
2.5
  3
txt
  4

  0
ENDTAB
  0
TABLE
  2
VIEW
 70
     0
  0
ENDTAB
  0
TABLE
  2
UCS
 70
     0
  0
ENDTAB
  0
TABLE
  2
APPID
 70
     8
  0
APPID
  2
ACAD
 70
     0
  0
APPID
  2
ACADANNOTATIVE
 70
     0
  0
APPID
  2
ACAD_PSEXT
 70
     0
  0
APPID
  2
ACADANNOPO
 70
     0
  0
APPID
  2
ACAD_DSTYLE_DIMJAG
 70
     0
  0
APPID
  2
ACAD_DSTYLE_DIMTALN
 70
     0
  0
APPID
  2
ACAD_MLEADERVER
 70
     0
  0
APPID
  2
ACAD_NAV_VCDISPLAY
 70
     0
  0
ENDTAB
  0
TABLE
  2
DIMSTYLE
 70
     4
  0
DIMSTYLE
  2
STANDARD
 70
     0
  3

  4

  5

  6

  7

 40
1.0
 41
0.18
 42
0.0625
 43
0.38
 44
0.18
 45
0.0
 46
0.0
 47
0.0
 48
0.0
140
0.18
141
0.09
142
0.0
143
25.399999999999999
144
1.0
145
0.0
146
1.0
147
0.09
 71
     0
 72
     0
 73
     1
 74
     1
 75
     0
 76
     0
 77
     0
 78
     0
170
     0
171
     2
172
     0
173
     0
174
     0
175
     0
176
     0
177
     0
178
     0
  0
DIMSTYLE
  2
ANNOTATIVE
 70
     0
  3

  4

  5

  6

  7

 40
1.0
 41
0.18
 42
0.0625
 43
0.38
 44
0.18
 45
0.0
 46
0.0
 47
0.0
 48
0.0
140
0.18
141
0.09
142
0.0
143
25.399999999999999
144
1.0
145
0.0
146
1.0
147
0.09
 71
     0
 72
     0
 73
     1
 74
     1
 75
     0
 76
     0
 77
     0
 78
     0
170
     0
171
     2
172
     0
173
     0
174
     0
175
     0
176
     0
177
     0
178
     0
  0
DIMSTYLE
  2
¿ÕÕŒ“¿“»¬Õ€…
 70
     0
  3

  4

  5

  6

  7

 40
0.0
 41
2.5
 42
0.625
 43
3.75
 44
1.25
 45
0.0
 46
0.0
 47
0.0
 48
0.0
140
2.5
141
2.5
142
0.0
143
0.03937007874016
144
1.0
145
0.0
146
1.0
147
0.625
 71
     0
 72
     0
 73
     0
 74
     0
 75
     0
 76
     0
 77
     1
 78
     8
170
     0
171
     3
172
     1
173
     0
174
     0
175
     0
176
     0
177
     0
178
     0
  0
DIMSTYLE
  2
ISO-25
 70
     0
  3

  4

  5

  6

  7

 40
1.0
 41
2.5
 42
0.625
 43
3.75
 44
1.25
 45
0.0
 46
0.0
 47
0.0
 48
0.0
140
2.5
141
2.5
142
0.0
143
0.03937007874016
144
1.0
145
0.0
146
1.0
147
0.625
 71
     0
 72
     0
 73
     0
 74
     0
 75
     0
 76
     0
 77
     1
 78
     8
170
     0
171
     3
172
     1
173
     0
174
     0
175
     0
176
     0
177
     0
178
     0
  0
ENDTAB
  0
ENDSEC
  0
SECTION
  2
BLOCKS
  0
BLOCK
  8
0
  2
$MODEL_SPACE
 70
     0
 10
0.0
 20
0.0
 30
0.0
  3
$MODEL_SPACE
  1

  0
ENDBLK
  5
4BA
  8
0
  0
BLOCK
 67
     1
  8
0
  2
$PAPER_SPACE
 70
     0
 10
0.0
 20
0.0
 30
0.0
  3
$PAPER_SPACE
  1

  0
ENDBLK
  5
4B6
 67
     1
  8
0
  0
ENDSEC
  0
SECTION
  2
ENTITIES
  0
CIRCLE
  5
505
  8
0
  6
CONTINUOUS
 62
     7
 10
77.499994815752871
 20
331.99999805637339
 30
0.0
 40
3.0
  0
CIRCLE
  5
506
  8
0
  6
CONTINUOUS
 62
     7
 10
383.49999481575293
 20
331.99999805637339
 30
0.0
 40
3.0
  0
CIRCLE
  5
507
  8
0
  6
CONTINUOUS
 62
     7
 10
394.49999481575281
 20
327.49999805637339
 30
0.0
 40
1.5
  0
CIRCLE
  5
508
  8
0
  6
CONTINUOUS
 62
     7
 10
66.499994815752871
 20
327.49999805637339
 30
0.0
 40
1.5
  0
LINE
  5
509
  8
0
  6
CONTINUOUS
 62
     7
 10
421.3999948157529
 20
33.499998056373443
 30
0.0
 11
421.3999948157529
 21
23.499998056373439
 31
0.0
  0
ARC
  5
50A
  8
0
  6
CONTINUOUS
 62
     7
 10
423.49999481575281
 20
23.499998056373439
 30
0.0
 40
2.100000000000021
 50
180.0
 51
0.0
  0
LINE
  5
50B
  8
0
  6
CONTINUOUS
 62
     7
 10
425.59999481575272
 20
23.499998056373439
 30
0.0
 11
425.59999481575272
 21
33.499998056373443
 31
0.0
  0
ARC
  5
50C
  8
0
  6
CONTINUOUS
 62
     7
 10
423.49999481575281
 20
33.499998056373443
 30
0.0
 40
2.100000000000021
 50
0.0
 51
180.0
  0
CIRCLE
  5
50D
  8
0
  6
CONTINUOUS
 62
     7
 10
438.99999481575281
 20
342.9999980563735
 30
0.0
 40
1.599999999999965
  0
CIRCLE
  5
50E
  8
0
  6
CONTINUOUS
 62
     7
 10
438.99999481575242
 20
311.9999980563735
 30
0.0
 40
1.599999999999965
  0
CIRCLE
  5
50F
  8
0
  6
CONTINUOUS
 62
     7
 10
423.49999481575281
 20
327.49999805637339
 30
0.0
 40
11.50000000000005
  0
CIRCLE
  5
510
  8
0
  6
CONTINUOUS
 62
     7
 10
407.9999948157523
 20
311.9999980563735
 30
0.0
 40
1.5999999999999091
  0
CIRCLE
  5
511
  8
0
  6
CONTINUOUS
 62
     7
 10
21.999994815753318
 20
311.9999980563735
 30
0.0
 40
1.5999999999999941
  0
CIRCLE
  5
512
  8
0
  6
CONTINUOUS
 62
     7
 10
52.999994815753332
 20
311.9999980563735
 30
0.0
 40
1.5999999999999941
  0
CIRCLE
  5
513
  8
0
  6
CONTINUOUS
 62
     7
 10
52.999994815752871
 20
342.9999980563735
 30
0.0
 40
1.599999999999965
  0
CIRCLE
  5
514
  8
0
  6
CONTINUOUS
 62
     7
 10
407.99999481575281
 20
342.9999980563735
 30
0.0
 40
1.599999999999965
  0
CIRCLE
  5
515
  8
0
  6
CONTINUOUS
 62
     7
 10
21.999994815752871
 20
342.9999980563735
 30
0.0
 40
1.599999999999965
  0
CIRCLE
  5
516
  8
0
  6
CONTINUOUS
 62
     7
 10
37.499994815752871
 20
327.49999805637339
 30
0.0
 40
11.5
  0
CIRCLE
  5
517
  8
0
  6
CONTINUOUS
 62
     7
 10
443.49999481575281
 20
54.499998056373443
 30
0.0
 40
1.249999999999942
  0
CIRCLE
  5
518
  8
0
  6
CONTINUOUS
 62
     7
 10
443.49999481575281
 20
94.499998056373457
 30
0.0
 40
1.249999999999942
  0
CIRCLE
  5
519
  8
0
  6
CONTINUOUS
 62
     7
 10
443.49999481575281
 20
134.49999805637341
 30
0.0
 40
1.249999999999942
  0
CIRCLE
  5
51A
  8
0
  6
CONTINUOUS
 62
     7
 10
443.49999481575333
 20
174.49999805637341
 30
0.0
 40
1.249999999999942
  0
CIRCLE
  5
51B
  8
0
  6
CONTINUOUS
 62
     7
 10
443.49999481575333
 20
214.49999805637341
 30
0.0
 40
1.2500000000000551
  0
CIRCLE
  5
51C
  8
0
  6
CONTINUOUS
 62
     7
 10
443.49999481575333
 20
254.49999805637341
 30
0.0
 40
1.249999999999942
  0
CIRCLE
  5
51D
  8
0
  6
CONTINUOUS
 62
     7
 10
443.49999481575372
 20
294.49999805637339
 30
0.0
 40
1.249999999999942
  0
CIRCLE
  5
51E
  8
0
  6
CONTINUOUS
 62
     7
 10
17.499994815751961
 20
294.49999805637339
 30
0.0
 40
1.25
  0
CIRCLE
  5
51F
  8
0
  6
CONTINUOUS
 62
     7
 10
17.499994815751961
 20
254.49999805637341
 30
0.0
 40
1.25
  0
CIRCLE
  5
520
  8
0
  6
CONTINUOUS
 62
     7
 10
17.499994815752409
 20
214.49999805637341
 30
0.0
 40
1.25
  0
CIRCLE
  5
521
  8
0
  6
CONTINUOUS
 62
     7
 10
17.499994815752409
 20
174.49999805637341
 30
0.0
 40
1.25
  0
CIRCLE
  5
522
  8
0
  6
CONTINUOUS
 62
     7
 10
17.499994815752409
 20
134.49999805637341
 30
0.0
 40
1.25
  0
CIRCLE
  5
523
  8
0
  6
CONTINUOUS
 62
     7
 10
17.499994815752871
 20
94.499998056373457
 30
0.0
 40
1.25
  0
CIRCLE
  5
524
  8
0
  6
CONTINUOUS
 62
     7
 10
17.499994815752871
 20
54.499998056373443
 30
0.0
 40
1.25
  0
POLYLINE
  5
525
  8
0
  6
CONTINUOUS
 62
     7
 66
     1
 10
0.0
 20
0.0
 30
0.0
 70
     1
  0
VERTEX
  5
5B3
  8
0
  6
CONTINUOUS
 62
     7
 10
417.49999481575293
 20
296.49999805637339
 30
0.0
 42
0.4142135623730951
  0
VERTEX
  5
5B4
  8
0
  6
CONTINUOUS
 62
     7
 10
409.49999481575281
 20
304.49999805637339
 30
0.0
  0
VERTEX
  5
5B5
  8
0
  6
CONTINUOUS
 62
     7
 10
395.49999481575293
 20
304.49999805637339
 30
0.0
  0
VERTEX
  5
5B6
  8
0
  6
CONTINUOUS
 62
     7
 10
395.49999481575293
 20
310.49999805637339
 30
0.0
  0
VERTEX
  5
5B7
  8
0
  6
CONTINUOUS
 62
     7
 10
65.499994815752871
 20
310.49999805637339
 30
0.0
  0
VERTEX
  5
5B8
  8
0
  6
CONTINUOUS
 62
     7
 10
65.499994815752871
 20
304.49999805637339
 30
0.0
  0
VERTEX
  5
5B9
  8
0
  6
CONTINUOUS
 62
     7
 10
51.499994815752871
 20
304.49999805637339
 30
0.0
 42
0.4142135623730951
  0
VERTEX
  5
5BA
  8
0
  6
CONTINUOUS
 62
     7
 10
43.499994815752871
 20
296.49999805637339
 30
0.0
  0
VERTEX
  5
5BB
  8
0
  6
CONTINUOUS
 62
     7
 10
43.499994815752871
 20
49.499998056373443
 30
0.0
  0
VERTEX
  5
5BC
  8
0
  6
CONTINUOUS
 62
     7
 10
56.499994815752871
 20
25.499998056373439
 30
0.0
  0
VERTEX
  5
5BD
  8
0
  6
CONTINUOUS
 62
     7
 10
404.49999481575293
 20
25.499998056373439
 30
0.0
  0
VERTEX
  5
5BE
  8
0
  6
CONTINUOUS
 62
     7
 10
417.49999481575293
 20
49.499998056373443
 30
0.0
  0
SEQEND
  5
5BF
  8
0
  6
CONTINUOUS
 62
     7
  0
POLYLINE
  5
526
  8
0
  6
CONTINUOUS
 62
     7
 66
     1
 10
0.0
 20
0.0
 30
0.0
 70
     1
  0
VERTEX
  5
5C0
  8
0
  6
CONTINUOUS
 62
     7
 10
4.4999948157528697
 20
-0.0000019436265575
 30
0.0
  0
VERTEX
  5
5C1
  8
0
  6
CONTINUOUS
 62
     7
 10
27.999994815752871
 20
-0.0000019436265575
 30
0.0
  0
VERTEX
  5
5C2
  8
0
  6
CONTINUOUS
 62
     7
 10
27.999994815752871
 20
15.499998056373441
 30
0.0
  0
VERTEX
  5
5C3
  8
0
  6
CONTINUOUS
 62
     7
 10
46.999994815752871
 20
15.499998056373441
 30
0.0
  0
VERTEX
  5
5C4
  8
0
  6
CONTINUOUS
 62
     7
 10
46.999994815752871
 20
-0.0000019436265575
 30
0.0
  0
VERTEX
  5
5C5
  8
0
  6
CONTINUOUS
 62
     7
 10
413.99999481575281
 20
-0.0000019436265575
 30
0.0
  0
VERTEX
  5
5C6
  8
0
  6
CONTINUOUS
 62
     7
 10
413.99999481575281
 20
15.499998056373441
 30
0.0
  0
VERTEX
  5
5C7
  8
0
  6
CONTINUOUS
 62
     7
 10
432.99999481575281
 20
15.499998056373441
 30
0.0
  0
VERTEX
  5
5C8
  8
0
  6
CONTINUOUS
 62
     7
 10
432.99999481575281
 20
-0.0000019436265575
 30
0.0
  0
VERTEX
  5
5C9
  8
0
  6
CONTINUOUS
 62
     7
 10
445.99999481575293
 20
-0.0000019436265575
 30
0.0
  0
VERTEX
  5
5CA
  8
0
  6
CONTINUOUS
 62
     7
 10
445.99999481575293
 20
9.9999980563734425
 30
0.0
 42
-0.4142135623730951
  0
VERTEX
  5
5CB
  8
0
  6
CONTINUOUS
 62
     7
 10
450.99999481575293
 20
14.999998056373441
 30
0.0
  0
VERTEX
  5
5CC
  8
0
  6
CONTINUOUS
 62
     7
 10
460.99999481575281
 20
14.999998056373441
 30
0.0
  0
VERTEX
  5
5CD
  8
0
  6
CONTINUOUS
 62
     7
 10
460.99999481575281
 20
304.99999805637339
 30
0.0
  0
VERTEX
  5
5CE
  8
0
  6
CONTINUOUS
 62
     7
 10
452.49999481575281
 20
304.99999805637339
 30
0.0
  0
VERTEX
  5
5CF
  8
0
  6
CONTINUOUS
 62
     7
 10
449.49999481575281
 20
307.9999980563735
 30
0.0
  0
VERTEX
  5
5D0
  8
0
  6
CONTINUOUS
 62
     7
 10
449.49999481575281
 20
348.99999805637339
 30
0.0
  0
VERTEX
  5
5D1
  8
0
  6
CONTINUOUS
 62
     7
 10
11.49999481575378
 20
348.99999805637339
 30
0.0
  0
VERTEX
  5
5D2
  8
0
  6
CONTINUOUS
 62
     7
 10
11.49999481575378
 20
307.9999980563735
 30
0.0
  0
VERTEX
  5
5D3
  8
0
  6
CONTINUOUS
 62
     7
 10
8.4999948157537801
 20
304.99999805637339
 30
0.0
  0
VERTEX
  5
5D4
  8
0
  6
CONTINUOUS
 62
     7
 10
-0.0000051842471294
 20
304.99999805637339
 30
0.0
  0
VERTEX
  5
5D5
  8
0
  6
CONTINUOUS
 62
     7
 10
-0.0000051842471294
 20
4.4999980563734416
 30
0.0
  0
SEQEND
  5
5D6
  8
0
  6
CONTINUOUS
 62
     7
  0
LINE
  5
527
  8
0
  6
CONTINUOUS
 62
     7
 10
35.399994815752962
 20
33.499998056373443
 30
0.0
 11
35.399994815752962
 21
23.499998056373439
 31
0.0
  0
ARC
  5
528
  8
0
  6
CONTINUOUS
 62
     7
 10
37.499994815752871
 20
23.499998056373439
 30
0.0
 40
2.100000000000021
 50
180.0
 51
0.0
  0
LINE
  5
529
  8
0
  6
CONTINUOUS
 62
     7
 10
39.59999481575278
 20
23.499998056373439
 30
0.0
 11
39.59999481575278
 21
33.499998056373443
 31
0.0
  0
ARC
  5
52A
  8
0
  6
CONTINUOUS
 62
     7
 10
37.499994815752871
 20
33.499998056373443
 30
0.0
 40
2.099999999999993
 50
0.0
 51
180.0
  0
POLYLINE
  5
52B
  8
0
 62
     7
 66
     1
 10
0.0
 20
0.0
 30
0.0
 70
     1
  0
VERTEX
  5
5D7
  8
0
 62
     7
 10
441.99999481575293
 20
32.499998056373443
 30
0.0
  0
VERTEX
  5
5D8
  8
0
 62
     7
 10
441.99999481575293
 20
42.499998056373443
 30
0.0
 42
0.9999999999999998
  0
VERTEX
  5
5D9
  8
0
 62
     7
 10
438.99999481575281
 20
42.499998056373443
 30
0.0
  0
VERTEX
  5
5DA
  8
0
 62
     7
 10
438.99999481575281
 20
32.499998056373443
 30
0.0
 42
0.9999999999999998
  0
SEQEND
  5
5DB
  8
0
 62
     7
  0
POLYLINE
  5
52C
  8
0
 62
     7
 66
     1
 10
0.0
 20
0.0
 30
0.0
 70
     1
  0
VERTEX
  5
5DC
  8
0
 62
     7
 10
451.49999481575281
 20
32.499998056373443
 30
0.0
 42
-0.9999999999999998
  0
VERTEX
  5
5DD
  8
0
 62
     7
 10
448.49999481575281
 20
32.499998056373443
 30
0.0
  0
VERTEX
  5
5DE
  8
0
 62
     7
 10
448.49999481575281
 20
42.499998056373443
 30
0.0
 42
-0.9999999999999998
  0
VERTEX
  5
5DF
  8
0
 62
     7
 10
451.49999481575281
 20
42.499998056373443
 30
0.0
  0
SEQEND
  5
5E0
  8
0
 62
     7
  0
CIRCLE
  5
52D
  8
0
 10
140.4999948157533
 20
327.49999805637339
 30
0.0
 40
1.25
  0
CIRCLE
  5
52E
  8
0
 10
320.49999481575333
 20
327.49999805637339
 30
0.0
 40
1.25
  0
CIRCLE
  5
52F
  8
0
 10
230.49999481575239
 20
327.49999805637339
 30
0.0
 40
1.25
  0
CIRCLE
  5
530
  8
0
  6
CONTINUOUS
 10
155.49999481575281
 20
15.499998056372981
 30
0.0
 40
1.25
  0
CIRCLE
  5
531
  8
0
 10
230.4999948157529
 20
15.499998056373441
 30
0.0
 40
1.25
  0
CIRCLE
  5
532
  8
0
  6
CONTINUOUS
 10
75.499994815752871
 20
15.499998056372529
 30
0.0
 40
1.25
  0
CIRCLE
  5
533
  8
0
  6
CONTINUOUS
 10
305.49999481575293
 20
15.499998056372981
 30
0.0
 40
1.25
  0
CIRCLE
  5
534
  8
0
  6
CONTINUOUS
 10
385.49999481575293
 20
15.499998056372529
 30
0.0
 40
1.25
  0
ENDSEC
  0
EOF
